{
  "source": "C:\\Users\\Peter\\Desktop\\stuff\\MIUN\\quantitative_research\\video_compression\\videos\\BVI-HD\\RockWater_1920x1080_30fps.mp4",
  "output": "C:\\Users\\Peter\\Desktop\\stuff\\MIUN\\quantitative_research\\video_compression\\compressed_videos\\BVI-HD\\vp9\\4\\RockWater_1920x1080_30fps_vp9.webm",
  "codec": "vp9",
  "ok": "Input #0, mov,mp4,m4a,3gp,3g2,mj2, from 'C:\\Users\\Peter\\Desktop\\stuff\\MIUN\\quantitative_research\\video_compression\\videos\\BVI-HD\\RockWater_1920x1080_30fps.mp4':\n  Metadata:\n    major_brand     : isom\n    minor_version   : 512\n    compatible_brands: isomiso2avc1mp41\n    encoder         : Lavf54.28.101\n  Duration: 00:00:05.00, start: 0.000000, bitrate: 245943 kb/s\n  Stream #0:0[0x1](und): Video: h264 (High 4:4:4 Predictive) (avc1 / 0x31637661), yuv420p(progressive), 1920x1080, 245940 kb/s, 30 fps, 30 tbr, 30 tbn (default)\n    Metadata:\n      handler_name    : VideoHandler\n      vendor_id       : [0][0][0][0]\n[out#0/webm @ 0000028e43910b00] Codec AVOption b:a (set bitrate (in bits/s)) has not been used for any stream. The most likely reason is either wrong type (e.g. a video option with no video streams) or that it is a private option of some decoder which was not actually used for any stream.\nStream mapping:\n  Stream #0:0 -> #0:0 (h264 (native) -> vp9 (libvpx-vp9))\nPress [q] to stop, [?] for help\n[libvpx-vp9 @ 0000028e44264600] v1.15.2-100-g40561f514\nOutput #0, webm, to 'C:\\Users\\Peter\\Desktop\\stuff\\MIUN\\quantitative_research\\video_compression\\compressed_videos\\BVI-HD\\vp9\\4\\RockWater_1920x1080_30fps_vp9.webm':\n  Metadata:\n    major_brand     : isom\n    minor_version   : 512\n    compatible_brands: isomiso2avc1mp41\n    encoder         : Lavf62.3.100\n  Stream #0:0(und): Video: vp9, yuv420p(tv, progressive), 1920x1080, q=2-31, 4000 kb/s, 30 fps, 1k tbn (default)\n    Metadata:\n      encoder         : Lavc62.11.100 libvpx-vp9\n      handler_name    : VideoHandler\n      vendor_id       : [0][0][0][0]\n    Side data:\n      cpb: bitrate max/min/avg: 0/0/0 buffer size: 4000000 vbv_delay: N/A\nframe=    0 fps=0.0 q=0.0 size=       0KiB time=N/A bitrate=N/A speed=N/A elapsed=0:00:00.50    \nframe=    4 fps=3.6 q=50.0 size=       1KiB time=00:00:00.13 bitrate=  38.0kbits/s speed=0.12x elapsed=0:00:01.10    \nframe=    9 fps=5.5 q=53.0 size=       1KiB time=00:00:00.30 bitrate=  16.9kbits/s speed=0.184x elapsed=0:00:01.63    \nframe=   13 fps=5.9 q=54.0 size=       1KiB time=00:00:00.43 bitrate=  11.7kbits/s speed=0.195x elapsed=0:00:02.21    \nframe=   17 fps=6.2 q=54.0 size=       1KiB time=00:00:00.56 bitrate=   9.0kbits/s speed=0.206x elapsed=0:00:02.74    \nframe=   21 fps=6.4 q=29.0 size=       1KiB time=00:00:00.70 bitrate=   7.2kbits/s speed=0.215x elapsed=0:00:03.26    \nframe=   25 fps=6.6 q=57.0 size=       1KiB time=00:00:00.83 bitrate=   6.1kbits/s speed=0.22x elapsed=0:00:03.78    \nframe=   30 fps=7.0 q=53.0 size=       1KiB time=00:00:01.00 bitrate=   5.1kbits/s speed=0.233x elapsed=0:00:04.29    \nframe=   34 fps=7.1 q=52.0 size=       1KiB time=00:00:01.13 bitrate=   4.5kbits/s speed=0.236x elapsed=0:00:04.81    \nframe=   38 fps=7.1 q=53.0 size=       1KiB time=00:00:01.26 bitrate=   4.0kbits/s speed=0.238x elapsed=0:00:05.33    \nframe=   42 fps=7.2 q=50.0 size=       1KiB time=00:00:01.40 bitrate=   3.6kbits/s speed=0.24x elapsed=0:00:05.83    \nframe=   46 fps=7.2 q=50.0 size=       1KiB time=00:00:01.53 bitrate=   3.3kbits/s speed=0.241x elapsed=0:00:06.35    \nframe=   51 fps=7.4 q=49.0 size=       1KiB time=00:00:01.70 bitrate=   3.0kbits/s speed=0.247x elapsed=0:00:06.87    \nframe=   56 fps=7.6 q=53.0 size=       1KiB time=00:00:01.86 bitrate=   2.7kbits/s speed=0.253x elapsed=0:00:07.38    \nframe=   61 fps=7.7 q=54.0 size=       1KiB time=00:00:02.03 bitrate=   2.5kbits/s speed=0.257x elapsed=0:00:07.92    \nframe=   65 fps=7.7 q=48.0 size=       1KiB time=00:00:02.16 bitrate=   2.3kbits/s speed=0.257x elapsed=0:00:08.43    \nframe=   69 fps=7.7 q=33.0 size=       1KiB time=00:00:02.30 bitrate=   2.2kbits/s speed=0.257x elapsed=0:00:08.95    \nframe=   73 fps=7.7 q=46.0 size=       1KiB time=00:00:02.43 bitrate=   2.1kbits/s speed=0.257x elapsed=0:00:09.47    \nframe=   78 fps=7.8 q=49.0 size=       1KiB time=00:00:02.60 bitrate=   2.0kbits/s speed=0.261x elapsed=0:00:09.98    \nframe=   82 fps=7.8 q=50.0 size=       1KiB time=00:00:02.73 bitrate=   1.9kbits/s speed=0.26x elapsed=0:00:10.49    \nframe=   86 fps=7.8 q=54.0 size=       1KiB time=00:00:02.86 bitrate=   1.8kbits/s speed=0.26x elapsed=0:00:11.00    \nframe=   91 fps=7.9 q=52.0 size=       1KiB time=00:00:03.03 bitrate=   1.7kbits/s speed=0.263x elapsed=0:00:11.53    \nframe=   94 fps=7.8 q=53.0 size=       1KiB time=00:00:03.13 bitrate=   1.6kbits/s speed=0.26x elapsed=0:00:12.05    \nframe=   98 fps=7.8 q=48.0 size=       1KiB time=00:00:03.26 bitrate=   1.6kbits/s speed=0.259x elapsed=0:00:12.59    \nframe=  102 fps=7.8 q=51.0 size=       1KiB time=00:00:03.40 bitrate=   1.5kbits/s speed=0.259x elapsed=0:00:13.10    \nframe=  105 fps=7.7 q=38.0 size=       1KiB time=00:00:03.50 bitrate=   1.4kbits/s speed=0.257x elapsed=0:00:13.62    \nframe=  109 fps=7.7 q=51.0 size=       1KiB time=00:00:03.63 bitrate=   1.4kbits/s speed=0.257x elapsed=0:00:14.13    \nframe=  112 fps=7.6 q=51.0 size=       1KiB time=00:00:03.73 bitrate=   1.4kbits/s speed=0.255x elapsed=0:00:14.65    \nframe=  116 fps=7.6 q=51.0 size=       1KiB time=00:00:03.86 bitrate=   1.3kbits/s speed=0.255x elapsed=0:00:15.16    \nframe=  119 fps=7.6 q=51.0 size=       1KiB time=00:00:03.96 bitrate=   1.3kbits/s speed=0.253x elapsed=0:00:15.70    \nframe=  122 fps=7.5 q=51.0 size=       1KiB time=00:00:04.06 bitrate=   1.2kbits/s speed=0.251x elapsed=0:00:16.23    \nframe=  126 fps=7.5 q=53.0 size=       1KiB time=00:00:04.20 bitrate=   1.2kbits/s speed=0.251x elapsed=0:00:16.75    \nframe=  126 fps=7.3 q=53.0 size=       1KiB time=00:00:04.20 bitrate=   1.2kbits/s speed=0.243x elapsed=0:00:17.26    \nframe=  126 fps=7.1 q=53.0 size=       1KiB time=00:00:04.20 bitrate=   1.2kbits/s speed=0.236x elapsed=0:00:17.77    \nframe=  126 fps=6.9 q=53.0 size=       1KiB time=00:00:04.20 bitrate=   1.2kbits/s speed=0.23x elapsed=0:00:18.28    \nframe=  126 fps=6.7 q=53.0 size=       1KiB time=00:00:04.20 bitrate=   1.2kbits/s speed=0.223x elapsed=0:00:18.82    \nframe=  126 fps=6.5 q=53.0 size=       1KiB time=00:00:04.20 bitrate=   1.2kbits/s speed=0.217x elapsed=0:00:19.35    \n[out#0/webm @ 0000028e43910b00] video:2409KiB audio:0KiB subtitle:0KiB other streams:0KiB global headers:0KiB muxing overhead: 0.071674%\nframe=  150 fps=7.6 q=50.0 Lsize=    2411KiB time=00:00:05.00 bitrate=3949.6kbits/s speed=0.254x elapsed=0:00:19.71    \n",
  "seconds": 19.87672185897827,
  "probe_out": {}
}